Roboto Serif Text-Super G4.ufo
<glyph name="quotesingle" format="2">
  <advance width="259"/>
  <unicode hex="0027"/>
  <outline>
    <contour>
      <point x="217" y="710" type="line"/>
      <point x="217" y="613"/>
      <point x="190" y="584"/>
      <point x="190" y="441" type="curve"/>
      <point x="69" y="441" type="line"/>
      <point x="69" y="584"/>
      <point x="42" y="612"/>
      <point x="42" y="710" type="curve"/>
    </contour>
  </outline>
</glyph>
<glyph name="parenleft" format="2">
  <advance width="380"/>
  <unicode hex="0028"/>
  <outline>
    <contour>
      <point x="231" y="310" type="curve" smooth="yes"/>
      <point x="231" y="113"/>
      <point x="309" y="-50"/>
      <point x="380" y="-127" type="curve"/>
      <point x="380" y="-130" type="line"/>
      <point x="235" y="-130" type="line"/>
      <point x="123" y="-51"/>
      <point x="25" y="116"/>
      <point x="25" y="310" type="curve" smooth="yes"/>
      <point x="25" y="504"/>
      <point x="123" y="671"/>
      <point x="235" y="750" type="curve"/>
      <point x="380" y="750" type="line"/>
      <point x="380" y="747" type="line"/>
      <point x="309" y="670"/>
      <point x="231" y="507"/>
    </contour>
  </outline>
</glyph>
<glyph name="asterisk" format="2">
  <advance width="500"/>
  <unicode hex="002A"/>
  <outline>
    <contour>
      <point x="103" y="341" type="line"/>
      <point x="152" y="365"/>
      <point x="179" y="409"/>
      <point x="271" y="459" type="curve"/>
      <point x="231" y="552" type="line"/>
      <point x="136" y="498"/>
      <point x="86" y="495"/>
      <point x="38" y="469" type="curve"/>
    </contour>
    <contour>
      <point x="231" y="459" type="curve"/>
      <point x="271" y="552" type="line"/>
      <point x="179" y="601"/>
      <point x="152" y="641"/>
      <point x="103" y="668" type="curve"/>
      <point x="38" y="540" type="line"/>
      <point x="86" y="513"/>
      <point x="136" y="510"/>
    </contour>
    <contour>
      <point x="184" y="298" type="curve"/>
      <point x="317" y="298" type="line"/>
      <point x="317" y="353"/>
      <point x="292" y="394"/>
      <point x="292" y="504" type="curve"/>
      <point x="209" y="504" type="line"/>
      <point x="209" y="394"/>
      <point x="184" y="353"/>
    </contour>
    <contour>
      <point x="209" y="504" type="curve"/>
      <point x="292" y="504" type="line"/>
      <point x="292" y="611"/>
      <point x="317" y="655"/>
      <point x="317" y="710" type="curve"/>
      <point x="184" y="710" type="line"/>
      <point x="184" y="655"/>
      <point x="209" y="611"/>
    </contour>
    <contour>
      <point x="397" y="341" type="curve"/>
      <point x="463" y="469" type="line"/>
      <point x="414" y="495"/>
      <point x="364" y="498"/>
      <point x="270" y="552" type="curve"/>
      <point x="230" y="459" type="line"/>
      <point x="320" y="409"/>
      <point x="348" y="365"/>
    </contour>
    <contour>
      <point x="270" y="459" type="line"/>
      <point x="364" y="510"/>
      <point x="414" y="513"/>
      <point x="463" y="540" type="curve"/>
      <point x="397" y="668" type="line"/>
      <point x="348" y="641"/>
      <point x="320" y="601"/>
      <point x="230" y="552" type="curve"/>
    </contour>
  </outline>
</glyph>
<glyph name="comma" format="2">
  <advance width="353"/>
  <unicode hex="002C"/>
  <outline>
    <contour>
      <point x="151" y="-201" type="line"/>
      <point x="259" y="-113"/>
      <point x="308" y="-14"/>
      <point x="308" y="92" type="curve" smooth="yes"/>
      <point x="308" y="193"/>
      <point x="252" y="241"/>
      <point x="171" y="241" type="curve" smooth="yes"/>
      <point x="92" y="241"/>
      <point x="43" y="185"/>
      <point x="43" y="109" type="curve" smooth="yes"/>
      <point x="43" y="32"/>
      <point x="95" y="-17"/>
      <point x="169" y="-17" type="curve" smooth="yes"/>
      <point x="192" y="-17"/>
      <point x="208" y="-15"/>
      <point x="220" y="-2" type="curve"/>
      <point x="210" y="6"/>
      <point x="189" y="34"/>
      <point x="189" y="28" type="curve"/>
      <point x="182" y="-25"/>
      <point x="110" y="-70"/>
      <point x="10" y="-116" type="curve"/>
    </contour>
  </outline>
</glyph>
<glyph name="two" format="2">
  <advance width="560"/>
  <unicode hex="0032"/>
  <outline>
    <contour>
      <point x="318" y="187" type="line" smooth="yes"/>
      <point x="394" y="187"/>
      <point x="421" y="190"/>
      <point x="427" y="226" type="curve" smooth="yes"/>
      <point x="435" y="244" type="line"/>
      <point x="532" y="244" type="line"/>
      <point x="532" y="0" type="line"/>
      <point x="19" y="0" type="line"/>
      <point x="19" y="185" type="line"/>
      <point x="177" y="270"/>
      <point x="287" y="313"/>
      <point x="287" y="425" type="curve" smooth="yes"/>
      <point x="287" y="468"/>
      <point x="270" y="496"/>
      <point x="232" y="496" type="curve" smooth="yes"/>
      <point x="203" y="496"/>
      <point x="187" y="477"/>
      <point x="171" y="483" type="curve"/>
      <point x="167" y="485"/>
      <point x="169" y="536"/>
      <point x="201" y="539" type="curve"/>
      <point x="201" y="410" type="line"/>
      <point x="24" y="410" type="line"/>
      <point x="24" y="547" type="line"/>
      <point x="69" y="583"/>
      <point x="153" y="618"/>
      <point x="267" y="618" type="curve" smooth="yes"/>
      <point x="433" y="618"/>
      <point x="518" y="549"/>
      <point x="518" y="438" type="curve" smooth="yes"/>
      <point x="518" y="276"/>
      <point x="297" y="194"/>
      <point x="120" y="135" type="curve"/>
      <point x="101" y="129"/>
      <point x="106" y="181"/>
      <point x="107" y="187" type="curve"/>
    </contour>
  </outline>
</glyph>
<glyph name="three" format="2">
  <advance width="560"/>
  <unicode hex="0033"/>
  <outline>
    <contour>
      <point x="236" y="37" type="curve" smooth="yes"/>
      <point x="294" y="37"/>
      <point x="323" y="68"/>
      <point x="323" y="136" type="curve" smooth="yes"/>
      <point x="323" y="175"/>
      <point x="302" y="225"/>
      <point x="213" y="225" type="curve" smooth="yes"/>
      <point x="169" y="225" type="line"/>
      <point x="169" y="342" type="line"/>
      <point x="201" y="342" type="line" smooth="yes"/>
      <point x="281" y="342"/>
      <point x="313" y="378"/>
      <point x="313" y="441" type="curve" smooth="yes"/>
      <point x="313" y="479"/>
      <point x="297" y="496"/>
      <point x="266" y="496" type="curve" smooth="yes"/>
      <point x="237" y="496"/>
      <point x="215" y="479"/>
      <point x="200" y="457" type="curve"/>
      <point x="196" y="459"/>
      <point x="196" y="536"/>
      <point x="228" y="539" type="curve"/>
      <point x="228" y="422" type="line"/>
      <point x="51" y="422" type="line"/>
      <point x="51" y="546" type="line"/>
      <point x="95" y="584"/>
      <point x="177" y="618"/>
      <point x="288" y="618" type="curve" smooth="yes"/>
      <point x="421" y="618"/>
      <point x="533" y="569"/>
      <point x="533" y="450" type="curve" smooth="yes"/>
      <point x="533" y="326"/>
      <point x="391" y="276"/>
      <point x="213" y="276" type="curve"/>
      <point x="231" y="296" type="line"/>
      <point x="459" y="296"/>
      <point x="550" y="229"/>
      <point x="550" y="118" type="curve" smooth="yes"/>
      <point x="550" y="-22"/>
      <point x="428" y="-90"/>
      <point x="277" y="-90" type="curve" smooth="yes"/>
      <point x="115" y="-90"/>
      <point x="44" y="-14"/>
      <point x="12" y="75" type="curve"/>
      <point x="107" y="150" type="line"/>
      <point x="129" y="127"/>
      <point x="160" y="37"/>
    </contour>
  </outline>
</glyph>
<glyph name="colon" format="2">
  <advance width="351"/>
  <unicode hex="003A"/>
  <outline>
    <contour>
      <point x="307" y="107" type="curve" smooth="yes"/>
      <point x="307" y="183"/>
      <point x="259" y="236"/>
      <point x="176" y="236" type="curve" smooth="yes"/>
      <point x="93" y="236"/>
      <point x="45" y="183"/>
      <point x="45" y="107" type="curve" smooth="yes"/>
      <point x="45" y="30"/>
      <point x="93" y="-23"/>
      <point x="176" y="-23" type="curve" smooth="yes"/>
      <point x="259" y="-23"/>
      <point x="307" y="30"/>
    </contour>
    <contour>
      <point x="307" y="415" type="curve" smooth="yes"/>
      <point x="307" y="491"/>
      <point x="259" y="544"/>
      <point x="176" y="544" type="curve" smooth="yes"/>
      <point x="93" y="544"/>
      <point x="45" y="491"/>
      <point x="45" y="415" type="curve" smooth="yes"/>
      <point x="45" y="338"/>
      <point x="93" y="285"/>
      <point x="176" y="285" type="curve" smooth="yes"/>
      <point x="259" y="285"/>
      <point x="307" y="338"/>
    </contour>
  </outline>
</glyph>
<glyph name="less" format="2">
  <advance width="560"/>
  <unicode hex="003C"/>
  <outline>
    <contour>
      <point x="474" y="600" type="line"/>
      <point x="86" y="422" type="line"/>
      <point x="86" y="329" type="line"/>
      <point x="107" y="277" type="line"/>
      <point x="474" y="440" type="line"/>
    </contour>
    <contour>
      <point x="474" y="260" type="line"/>
      <point x="108" y="422" type="line"/>
      <point x="86" y="347" type="line"/>
      <point x="86" y="268" type="line"/>
      <point x="474" y="90" type="line"/>
    </contour>
  </outline>
</glyph>
<glyph name="at" format="2">
  <advance width="921"/>
  <unicode hex="0040"/>
  <outline>
    <contour>
      <point x="469" y="-50" type="curve" smooth="yes"/>
      <point x="269" y="-50"/>
      <point x="128" y="57"/>
      <point x="128" y="231" type="curve" smooth="yes"/>
      <point x="128" y="424"/>
      <point x="286" y="570"/>
      <point x="502" y="570" type="curve" smooth="yes"/>
      <point x="684" y="570"/>
      <point x="793" y="473"/>
      <point x="793" y="342" type="curve" smooth="yes"/>
      <point x="793" y="220"/>
      <point x="734" y="147"/>
      <point x="694" y="147" type="curve" smooth="yes"/>
      <point x="676" y="147"/>
      <point x="675" y="159"/>
      <point x="681" y="179" type="curve" smooth="yes"/>
      <point x="731" y="471" type="line"/>
      <point x="572" y="471" type="line"/>
      <point x="534" y="389" type="line"/>
      <point x="524" y="384" type="line"/>
      <point x="485" y="148" type="line"/>
      <point x="491" y="142"/>
      <point x="500" y="139"/>
      <point x="501" y="150" type="curve"/>
      <point x="516" y="93"/>
      <point x="564" y="52"/>
      <point x="659" y="52" type="curve" smooth="yes"/>
      <point x="786" y="52"/>
      <point x="901" y="159"/>
      <point x="901" y="342" type="curve" smooth="yes"/>
      <point x="901" y="532"/>
      <point x="744" y="673"/>
      <point x="502" y="673" type="curve" smooth="yes"/>
      <point x="230" y="673"/>
      <point x="20" y="487"/>
      <point x="20" y="231" type="curve" smooth="yes"/>
      <point x="20" y="-8"/>
      <point x="213" y="-153"/>
      <point x="469" y="-153" type="curve" smooth="yes"/>
      <point x="586" y="-153"/>
      <point x="697" y="-125"/>
      <point x="767" y="-88" type="curve"/>
      <point x="743" y="12" type="line"/>
      <point x="668" y="-25"/>
      <point x="577" y="-50"/>
    </contour>
    <contour>
      <point x="392" y="46" type="curve" smooth="yes"/>
      <point x="478" y="46"/>
      <point x="516" y="110"/>
      <point x="570" y="223" type="curve"/>
      <point x="539" y="307" type="line"/>
      <point x="496" y="210"/>
      <point x="465" y="158"/>
      <point x="438" y="158" type="curve" smooth="yes"/>
      <point x="411" y="158"/>
      <point x="403" y="172"/>
      <point x="403" y="212" type="curve" smooth="yes"/>
      <point x="403" y="293"/>
      <point x="429" y="365"/>
      <point x="478" y="365" type="curve" smooth="yes"/>
      <point x="509" y="365"/>
      <point x="527" y="336"/>
      <point x="547" y="251" type="curve"/>
      <point x="577" y="330" type="line"/>
      <point x="554" y="440"/>
      <point x="525" y="477"/>
      <point x="440" y="477" type="curve" smooth="yes"/>
      <point x="300" y="477"/>
      <point x="210" y="349"/>
      <point x="210" y="227" type="curve" smooth="yes"/>
      <point x="210" y="109"/>
      <point x="291" y="46"/>
    </contour>
  </outline>
</glyph>
<glyph name="A" format="2">
  <advance width="740"/>
  <unicode hex="0041"/>
  <anchor x="349" y="721" name="top"/>
  <anchor x="553" y="0" name="right"/>
  <anchor x="349" y="0" name="bottom"/>
  <outline>
    <contour>
      <point x="153" y="207" type="line"/>
      <point x="412" y="207" type="line"/>
      <point x="412" y="324" type="line"/>
      <point x="153" y="324" type="line"/>
    </contour>
    <contour>
      <point x="10" y="0" type="line"/>
      <point x="209" y="0" type="line"/>
      <point x="209" y="109" type="line"/>
      <point x="197" y="109" type="line" smooth="yes"/>
      <point x="176" y="109"/>
      <point x="153" y="116"/>
      <point x="153" y="127" type="curve"/>
      <point x="300" y="573" type="line"/>
      <point x="251" y="636" type="line"/>
      <point x="251" y="636" type="line"/>
      <point x="417" y="119" type="line"/>
      <point x="417" y="112"/>
      <point x="393" y="109"/>
      <point x="371" y="109" type="curve" smooth="yes"/>
      <point x="356" y="109" type="line"/>
      <point x="356" y="0" type="line"/>
      <point x="730" y="0" type="line"/>
      <point x="730" y="109" type="line"/>
      <point x="726" y="109" type="line" smooth="yes"/>
      <point x="705" y="109"/>
      <point x="691" y="115"/>
      <point x="684" y="137" type="curve" smooth="yes"/>
      <point x="494" y="710" type="line"/>
      <point x="240" y="710" type="line"/>
      <point x="55" y="152" type="line" smooth="yes"/>
      <point x="45" y="119"/>
      <point x="34" y="109"/>
      <point x="15" y="109" type="curve" smooth="yes"/>
      <point x="10" y="109" type="line"/>
    </contour>
  </outline>
</glyph>
<glyph name="B" format="2">
  <advance width="752"/>
  <unicode hex="0042"/>
  <outline>
    <contour>
      <point x="359" y="314" type="line" smooth="yes"/>
      <point x="432" y="314"/>
      <point x="464" y="273"/>
      <point x="464" y="218" type="curve" smooth="yes"/>
      <point x="464" y="147"/>
      <point x="425" y="117"/>
      <point x="366" y="117" type="curve" smooth="yes"/>
      <point x="335" y="117" type="line"/>
      <point x="335" y="593" type="line"/>
      <point x="361" y="593" type="line" smooth="yes"/>
      <point x="409" y="593"/>
      <point x="441" y="565"/>
      <point x="441" y="520" type="curve" smooth="yes"/>
      <point x="441" y="458"/>
      <point x="416" y="426"/>
      <point x="354" y="426" type="curve" smooth="yes"/>
      <point x="295" y="426" type="line"/>
      <point x="295" y="314" type="line"/>
    </contour>
    <contour>
      <point x="22" y="0" type="line"/>
      <point x="438" y="0" type="line" smooth="yes"/>
      <point x="628" y="0"/>
      <point x="730" y="75"/>
      <point x="730" y="200" type="curve" smooth="yes"/>
      <point x="730" y="318"/>
      <point x="626" y="371"/>
      <point x="501" y="379" type="curve"/>
      <point x="511" y="364" type="line"/>
      <point x="511" y="383" type="line"/>
      <point x="493" y="373" type="line"/>
      <point x="608" y="380"/>
      <point x="702" y="426"/>
      <point x="702" y="541" type="curve" smooth="yes"/>
      <point x="702" y="646"/>
      <point x="609" y="710"/>
      <point x="430" y="710" type="curve" smooth="yes"/>
      <point x="22" y="710" type="line"/>
      <point x="22" y="601" type="line"/>
      <point x="32" y="601" type="line" smooth="yes"/>
      <point x="54" y="601"/>
      <point x="72" y="594"/>
      <point x="72" y="565" type="curve"/>
      <point x="72" y="145" type="line"/>
      <point x="72" y="116"/>
      <point x="54" y="109"/>
      <point x="32" y="109" type="curve" smooth="yes"/>
      <point x="22" y="109" type="line"/>
    </contour>
  </outline>
</glyph>
<glyph name="D" format="2">
  <advance width="823"/>
  <unicode hex="0044"/>
  <anchor x="389" y="741" name="top"/>
  <anchor x="389" y="0" name="bottom"/>
  <outline>
    <contour>
      <point x="22" y="0" type="line"/>
      <point x="22" y="109" type="line"/>
      <point x="33" y="109" type="line" smooth="yes"/>
      <point x="54" y="109"/>
      <point x="72" y="116"/>
      <point x="72" y="145" type="curve" smooth="yes"/>
      <point x="72" y="565" type="line" smooth="yes"/>
      <point x="72" y="592"/>
      <point x="54" y="601"/>
      <point x="33" y="601" type="curve" smooth="yes"/>
      <point x="22" y="601" type="line"/>
      <point x="22" y="710" type="line"/>
      <point x="392" y="710" type="line" smooth="yes"/>
      <point x="628" y="710"/>
      <point x="795" y="584"/>
      <point x="795" y="357" type="curve" smooth="yes"/>
      <point x="795" y="131"/>
      <point x="628" y="0"/>
      <point x="392" y="0" type="curve" smooth="yes"/>
    </contour>
    <contour>
      <point x="380" y="120" type="line" smooth="yes"/>
      <point x="461" y="120"/>
      <point x="522" y="216"/>
      <point x="522" y="357" type="curve" smooth="yes"/>
      <point x="522" y="498"/>
      <point x="461" y="590"/>
      <point x="380" y="590" type="curve" smooth="yes"/>
      <point x="335" y="590" type="line"/>
      <point x="335" y="120" type="line"/>
    </contour>
  </outline>
</glyph>
<glyph name="E" format="2">
  <advance width="651"/>
  <unicode hex="0045"/>
  <anchor x="379" y="741" name="top"/>
  <anchor x="443" y="0" name="right"/>
  <anchor x="379" y="0" name="bottom"/>
  <outline>
    <contour>
      <point x="308" y="416" type="line"/>
      <point x="308" y="311" type="line"/>
      <point x="518" y="297" type="line"/>
      <point x="518" y="430" type="line"/>
    </contour>
    <contour>
      <point x="628" y="0" type="line"/>
      <point x="628" y="235" type="line"/>
      <point x="515" y="235" type="line"/>
      <point x="504" y="162" type="line" smooth="yes"/>
      <point x="500" y="126"/>
      <point x="471" y="119"/>
      <point x="395" y="119" type="curve" smooth="yes"/>
      <point x="335" y="119" type="line"/>
      <point x="335" y="591" type="line"/>
      <point x="397" y="591" type="line" smooth="yes"/>
      <point x="447" y="591"/>
      <point x="483" y="584"/>
      <point x="485" y="548" type="curve" smooth="yes"/>
      <point x="490" y="500" type="line"/>
      <point x="601" y="500" type="line"/>
      <point x="601" y="710" type="line"/>
      <point x="22" y="710" type="line"/>
      <point x="22" y="601" type="line"/>
      <point x="32" y="601" type="line" smooth="yes"/>
      <point x="54" y="601"/>
      <point x="72" y="594"/>
      <point x="72" y="565" type="curve" smooth="yes"/>
      <point x="72" y="145" type="line" smooth="yes"/>
      <point x="72" y="116"/>
      <point x="54" y="109"/>
      <point x="32" y="109" type="curve" smooth="yes"/>
      <point x="22" y="109" type="line"/>
      <point x="22" y="0" type="line"/>
    </contour>
  </outline>
</glyph>
<glyph name="F" format="2">
  <advance width="629"/>
  <unicode hex="0046"/>
  <outline>
    <contour>
      <point x="308" y="409" type="line"/>
      <point x="308" y="304" type="line"/>
      <point x="520" y="290" type="line"/>
      <point x="520" y="423" type="line"/>
    </contour>
    <contour>
      <point x="22" y="0" type="line"/>
      <point x="408" y="0" type="line"/>
      <point x="408" y="109" type="line"/>
      <point x="391" y="109" type="line" smooth="yes"/>
      <point x="366" y="109"/>
      <point x="335" y="110"/>
      <point x="335" y="145" type="curve" smooth="yes"/>
      <point x="335" y="591" type="line"/>
      <point x="402" y="591" type="line" smooth="yes"/>
      <point x="451" y="591"/>
      <point x="486" y="584"/>
      <point x="489" y="548" type="curve" smooth="yes"/>
      <point x="495" y="500" type="line"/>
      <point x="606" y="500" type="line"/>
      <point x="606" y="710" type="line"/>
      <point x="22" y="710" type="line"/>
      <point x="22" y="601" type="line"/>
      <point x="32" y="601" type="line" smooth="yes"/>
      <point x="54" y="601"/>
      <point x="72" y="594"/>
      <point x="72" y="565" type="curve" smooth="yes"/>
      <point x="72" y="145" type="line" smooth="yes"/>
      <point x="72" y="116"/>
      <point x="54" y="109"/>
      <point x="32" y="109" type="curve" smooth="yes"/>
      <point x="22" y="109" type="line"/>
    </contour>
  </outline>
</glyph>
<glyph name="K" format="2">
  <advance width="825"/>
  <unicode hex="004B"/>
  <anchor x="375" y="741" name="top"/>
  <anchor x="375" y="0" name="bottom"/>
  <outline>
    <contour>
      <point x="22" y="0" type="line"/>
      <point x="380" y="0" type="line"/>
      <point x="380" y="109" type="line"/>
      <point x="372" y="109" type="line" smooth="yes"/>
      <point x="354" y="109"/>
      <point x="335" y="112"/>
      <point x="335" y="119" type="curve" smooth="yes"/>
      <point x="335" y="591" type="line" smooth="yes"/>
      <point x="335" y="598"/>
      <point x="365" y="601"/>
      <point x="395" y="601" type="curve" smooth="yes"/>
      <point x="406" y="601" type="line"/>
      <point x="406" y="710" type="line"/>
      <point x="22" y="710" type="line"/>
      <point x="22" y="601" type="line"/>
      <point x="32" y="601" type="line" smooth="yes"/>
      <point x="54" y="601"/>
      <point x="72" y="594"/>
      <point x="72" y="565" type="curve" smooth="yes"/>
      <point x="72" y="145" type="line" smooth="yes"/>
      <point x="72" y="116"/>
      <point x="54" y="109"/>
      <point x="32" y="109" type="curve" smooth="yes"/>
      <point x="22" y="109" type="line"/>
    </contour>
    <contour>
      <point x="433" y="0" type="line"/>
      <point x="810" y="0" type="line"/>
      <point x="810" y="109" type="line"/>
      <point x="800" y="109" type="line" smooth="yes"/>
      <point x="782" y="109"/>
      <point x="771" y="119"/>
      <point x="757" y="142" type="curve" smooth="yes"/>
      <point x="553" y="486" type="line"/>
      <point x="479" y="351" type="line"/>
      <point x="678" y="563" type="line" smooth="yes"/>
      <point x="704" y="593"/>
      <point x="720" y="601"/>
      <point x="747" y="601" type="curve" smooth="yes"/>
      <point x="768" y="601" type="line"/>
      <point x="768" y="710" type="line"/>
      <point x="499" y="710" type="line"/>
      <point x="499" y="601" type="line"/>
      <point x="510" y="601" type="line" smooth="yes"/>
      <point x="536" y="601"/>
      <point x="576" y="600"/>
      <point x="575" y="593" type="curve"/>
      <point x="359" y="363" type="line"/>
      <point x="359" y="330" type="line"/>
      <point x="478" y="119" type="line"/>
      <point x="478" y="112"/>
      <point x="459" y="109"/>
      <point x="441" y="109" type="curve" smooth="yes"/>
      <point x="433" y="109" type="line"/>
    </contour>
  </outline>
</glyph>
<glyph name="L" format="2">
  <advance width="651"/>
  <unicode hex="004C"/>
  <anchor x="379" y="741" name="top"/>
  <anchor x="471" y="710" name="right"/>
  <anchor x="473" y="410" name="mid"/>
  <anchor x="379" y="0" name="bottom"/>
  <outline>
    <contour>
      <point x="397" y="710" type="line"/>
      <point x="397" y="601" type="line"/>
      <point x="381" y="601" type="line" smooth="yes"/>
      <point x="354" y="601"/>
      <point x="335" y="594"/>
      <point x="335" y="565" type="curve" smooth="yes"/>
      <point x="335" y="119" type="line"/>
      <point x="393" y="119" type="line" smooth="yes"/>
      <point x="468" y="119"/>
      <point x="500" y="126"/>
      <point x="503" y="162" type="curve" smooth="yes"/>
      <point x="513" y="249" type="line"/>
      <point x="628" y="249" type="line"/>
      <point x="628" y="0" type="line"/>
      <point x="22" y="0" type="line"/>
      <point x="22" y="109" type="line"/>
      <point x="32" y="109" type="line" smooth="yes"/>
      <point x="54" y="109"/>
      <point x="72" y="116"/>
      <point x="72" y="145" type="curve" smooth="yes"/>
      <point x="72" y="565" type="line" smooth="yes"/>
      <point x="72" y="594"/>
      <point x="54" y="601"/>
      <point x="32" y="601" type="curve" smooth="yes"/>
      <point x="22" y="601" type="line"/>
      <point x="22" y="710" type="line"/>
    </contour>
  </outline>
</glyph>
<glyph name="M" format="2">
  <advance width="975"/>
  <unicode hex="004D"/>
  <anchor x="465" y="0" name="bottom"/>
  <outline>
    <contour>
      <point x="22" y="0" type="line"/>
      <point x="227" y="0" type="line"/>
      <point x="227" y="109" type="line"/>
      <point x="219" y="109" type="line" smooth="yes"/>
      <point x="200" y="109"/>
      <point x="177" y="112"/>
      <point x="177" y="119" type="curve" smooth="yes"/>
      <point x="177" y="689" type="line"/>
      <point x="156" y="687" type="line"/>
      <point x="156" y="687" type="line"/>
      <point x="342" y="-2" type="line"/>
      <point x="474" y="-2" type="line"/>
      <point x="659" y="686" type="line"/>
      <point x="640" y="688" type="line"/>
      <point x="640" y="688" type="line"/>
      <point x="640" y="119" type="line" smooth="yes"/>
      <point x="640" y="112"/>
      <point x="617" y="109"/>
      <point x="595" y="109" type="curve" smooth="yes"/>
      <point x="587" y="109" type="line"/>
      <point x="587" y="0" type="line"/>
      <point x="953" y="0" type="line"/>
      <point x="953" y="109" type="line"/>
      <point x="943" y="109" type="line" smooth="yes"/>
      <point x="921" y="109"/>
      <point x="903" y="116"/>
      <point x="903" y="145" type="curve" smooth="yes"/>
      <point x="903" y="565" type="line" smooth="yes"/>
      <point x="903" y="594"/>
      <point x="921" y="601"/>
      <point x="943" y="601" type="curve" smooth="yes"/>
      <point x="953" y="601" type="line"/>
      <point x="953" y="710" type="line"/>
      <point x="559" y="710" type="line"/>
      <point x="466" y="347" type="line"/>
      <point x="517" y="249" type="line"/>
      <point x="520" y="249" type="line"/>
      <point x="420" y="710" type="line"/>
      <point x="22" y="710" type="line"/>
      <point x="22" y="601" type="line"/>
      <point x="32" y="601" type="line" smooth="yes"/>
      <point x="54" y="601"/>
      <point x="72" y="594"/>
      <point x="72" y="565" type="curve" smooth="yes"/>
      <point x="72" y="145" type="line" smooth="yes"/>
      <point x="72" y="116"/>
      <point x="54" y="109"/>
      <point x="32" y="109" type="curve"/>
      <point x="22" y="109" type="line"/>
    </contour>
  </outline>
</glyph>
<glyph name="N" format="2">
  <advance width="750"/>
  <unicode hex="004E"/>
  <anchor x="409" y="741" name="top"/>
  <anchor x="409" y="0" name="bottom"/>
  <outline>
    <contour>
      <point x="22" y="0" type="line"/>
      <point x="22" y="109" type="line"/>
      <point x="32" y="109" type="line" smooth="yes"/>
      <point x="54" y="109"/>
      <point x="72" y="121"/>
      <point x="72" y="150" type="curve" smooth="yes"/>
      <point x="72" y="565" type="line" smooth="yes"/>
      <point x="72" y="594"/>
      <point x="54" y="601"/>
      <point x="32" y="601" type="curve" smooth="yes"/>
      <point x="22" y="601" type="line"/>
      <point x="22" y="710" type="line"/>
      <point x="399" y="710" type="line"/>
      <point x="615" y="191" type="line"/>
      <point x="615" y="191" type="line"/>
      <point x="573" y="220" type="line"/>
      <point x="573" y="586" type="line" smooth="yes"/>
      <point x="573" y="593"/>
      <point x="547" y="601"/>
      <point x="525" y="601" type="curve" smooth="yes"/>
      <point x="513" y="601" type="line"/>
      <point x="513" y="710" type="line"/>
      <point x="728" y="710" type="line"/>
      <point x="728" y="601" type="line"/>
      <point x="718" y="601" type="line" smooth="yes"/>
      <point x="696" y="601"/>
      <point x="678" y="594"/>
      <point x="678" y="565" type="curve" smooth="yes"/>
      <point x="678" y="0" type="line"/>
      <point x="432" y="0" type="line"/>
      <point x="134" y="670" type="line"/>
      <point x="134" y="670" type="line"/>
      <point x="177" y="654" type="line"/>
      <point x="177" y="124" type="line" smooth="yes"/>
      <point x="177" y="117"/>
      <point x="202" y="109"/>
      <point x="225" y="109" type="curve" smooth="yes"/>
      <point x="237" y="109" type="line"/>
      <point x="237" y="0" type="line"/>
    </contour>
  </outline>
</glyph>
<glyph name="O" format="2">
  <advance width="814"/>
  <unicode hex="004F"/>
  <anchor x="397" y="741" name="top"/>
  <anchor x="397" y="0" name="bottom"/>
  <outline>
    <contour>
      <point x="407" y="-10" type="curve" smooth="yes"/>
      <point x="631" y="-10"/>
      <point x="786" y="133"/>
      <point x="786" y="355" type="curve" smooth="yes"/>
      <point x="786" y="576"/>
      <point x="631" y="720"/>
      <point x="407" y="720" type="curve" smooth="yes"/>
      <point x="183" y="720"/>
      <point x="28" y="576"/>
      <point x="28" y="355" type="curve" smooth="yes"/>
      <point x="28" y="133"/>
      <point x="183" y="-10"/>
    </contour>
    <contour>
      <point x="407" y="117" type="curve" smooth="yes"/>
      <point x="341" y="117"/>
      <point x="301" y="199"/>
      <point x="301" y="355" type="curve" smooth="yes"/>
      <point x="301" y="511"/>
      <point x="341" y="593"/>
      <point x="407" y="593" type="curve" smooth="yes"/>
      <point x="473" y="593"/>
      <point x="516" y="511"/>
      <point x="516" y="355" type="curve" smooth="yes"/>
      <point x="516" y="199"/>
      <point x="473" y="117"/>
    </contour>
  </outline>
</glyph>
<glyph name="Q" format="2">
  <advance width="814"/>
  <unicode hex="0051"/>
  <outline>
    <contour>
      <point x="351" y="3" type="line"/>
      <point x="348" y="-168"/>
      <point x="430" y="-237"/>
      <point x="602" y="-237" type="curve" smooth="yes"/>
      <point x="662" y="-237"/>
      <point x="721" y="-221"/>
      <point x="754" y="-200" type="curve"/>
      <point x="754" y="-10" type="line"/>
      <point x="726" y="-23"/>
      <point x="657" y="-52"/>
      <point x="579" y="-52" type="curve" smooth="yes"/>
      <point x="509" y="-52"/>
      <point x="466" y="-50"/>
      <point x="470" y="10" type="curve"/>
    </contour>
    <contour>
      <point x="407" y="-10" type="curve" smooth="yes"/>
      <point x="631" y="-10"/>
      <point x="786" y="133"/>
      <point x="786" y="355" type="curve" smooth="yes"/>
      <point x="786" y="576"/>
      <point x="631" y="720"/>
      <point x="407" y="720" type="curve" smooth="yes"/>
      <point x="183" y="720"/>
      <point x="28" y="576"/>
      <point x="28" y="355" type="curve" smooth="yes"/>
      <point x="28" y="133"/>
      <point x="183" y="-10"/>
    </contour>
    <contour>
      <point x="407" y="117" type="curve" smooth="yes"/>
      <point x="341" y="117"/>
      <point x="301" y="199"/>
      <point x="301" y="355" type="curve" smooth="yes"/>
      <point x="301" y="511"/>
      <point x="340" y="593"/>
      <point x="407" y="593" type="curve" smooth="yes"/>
      <point x="473" y="593"/>
      <point x="516" y="511"/>
      <point x="516" y="355" type="curve" smooth="yes"/>
      <point x="516" y="199"/>
      <point x="473" y="117"/>
    </contour>
  </outline>
</glyph>
<glyph name="U" format="2">
  <advance width="743"/>
  <unicode hex="0055"/>
  <anchor x="408" y="741" name="top"/>
  <anchor x="463" y="0" name="right"/>
  <anchor x="408" y="0" name="bottom"/>
  <outline>
    <contour>
      <point x="333" y="300" type="curve" smooth="yes"/>
      <point x="333" y="591" type="line" smooth="yes"/>
      <point x="333" y="598"/>
      <point x="357" y="601"/>
      <point x="376" y="601" type="curve" smooth="yes"/>
      <point x="385" y="601" type="line"/>
      <point x="385" y="710" type="line"/>
      <point x="20" y="710" type="line"/>
      <point x="20" y="601" type="line"/>
      <point x="30" y="601" type="line" smooth="yes"/>
      <point x="52" y="601"/>
      <point x="70" y="594"/>
      <point x="70" y="565" type="curve" smooth="yes"/>
      <point x="70" y="280" type="line" smooth="yes"/>
      <point x="70" y="77"/>
      <point x="193" y="-10"/>
      <point x="385" y="-10" type="curve" smooth="yes"/>
      <point x="547" y="-10"/>
      <point x="673" y="74"/>
      <point x="673" y="280" type="curve" smooth="yes"/>
      <point x="673" y="565" type="line" smooth="yes"/>
      <point x="673" y="594"/>
      <point x="691" y="601"/>
      <point x="713" y="601" type="curve" smooth="yes"/>
      <point x="723" y="601" type="line"/>
      <point x="723" y="710" type="line"/>
      <point x="519" y="710" type="line"/>
      <point x="519" y="601" type="line"/>
      <point x="527" y="601" type="line" smooth="yes"/>
      <point x="544" y="601"/>
      <point x="568" y="595"/>
      <point x="568" y="581" type="curve" smooth="yes"/>
      <point x="568" y="300" type="line" smooth="yes"/>
      <point x="568" y="175"/>
      <point x="525" y="122"/>
      <point x="450" y="122" type="curve" smooth="yes"/>
      <point x="367" y="122"/>
      <point x="333" y="170"/>
    </contour>
  </outline>
</glyph>
<glyph name="V" format="2">
  <advance width="735"/>
  <unicode hex="0056"/>
  <outline>
    <contour>
      <point x="242" y="0" type="line"/>
      <point x="57" y="573" type="line" smooth="yes"/>
      <point x="50" y="595"/>
      <point x="36" y="601"/>
      <point x="15" y="601" type="curve"/>
      <point x="10" y="601" type="line"/>
      <point x="10" y="710" type="line"/>
      <point x="381" y="710" type="line"/>
      <point x="381" y="601" type="line"/>
      <point x="365" y="601" type="line" smooth="yes"/>
      <point x="346" y="601"/>
      <point x="323" y="598"/>
      <point x="323" y="591" type="curve"/>
      <point x="484" y="74" type="line"/>
      <point x="484" y="74" type="line"/>
      <point x="436" y="136" type="line"/>
      <point x="579" y="583" type="line"/>
      <point x="579" y="594"/>
      <point x="556" y="601"/>
      <point x="540" y="601" type="curve" smooth="yes"/>
      <point x="527" y="601" type="line"/>
      <point x="527" y="710" type="line"/>
      <point x="725" y="710" type="line"/>
      <point x="725" y="601" type="line"/>
      <point x="721" y="601" type="line"/>
      <point x="698" y="601"/>
      <point x="688" y="591"/>
      <point x="678" y="558" type="curve" smooth="yes"/>
      <point x="498" y="0" type="line"/>
    </contour>
  </outline>
</glyph>
<glyph name="Z" format="2">
  <advance width="644"/>
  <unicode hex="005A"/>
  <anchor x="329" y="741" name="top"/>
  <anchor x="329" y="0" name="bottom"/>
  <outline>
    <contour>
      <point x="175" y="120" type="line"/>
      <point x="222" y="7" type="line"/>
      <point x="613" y="581" type="line"/>
      <point x="613" y="710" type="line"/>
      <point x="37" y="710" type="line"/>
      <point x="37" y="491" type="line"/>
      <point x="150" y="491" type="line"/>
      <point x="155" y="547" type="line" smooth="yes"/>
      <point x="157" y="583"/>
      <point x="193" y="590"/>
      <point x="243" y="590" type="curve" smooth="yes"/>
      <point x="432" y="590" type="line"/>
      <point x="395" y="691" type="line"/>
      <point x="16" y="133" type="line"/>
      <point x="16" y="0" type="line"/>
      <point x="629" y="0" type="line"/>
      <point x="629" y="244" type="line"/>
      <point x="516" y="244" type="line"/>
      <point x="504" y="163" type="line" smooth="yes"/>
      <point x="500" y="127"/>
      <point x="471" y="120"/>
      <point x="395" y="120" type="curve" smooth="yes"/>
    </contour>
  </outline>
</glyph>
<glyph name="asciicircum" format="2">
  <advance width="502"/>
  <unicode hex="005E"/>
  <outline>
    <contour>
      <point x="187" y="350" type="line"/>
      <point x="296" y="685" type="line"/>
      <point x="294" y="710" type="line"/>
      <point x="159" y="710" type="line"/>
      <point x="15" y="350" type="line"/>
    </contour>
    <contour>
      <point x="310" y="350" type="line"/>
      <point x="487" y="350" type="line"/>
      <point x="343" y="710" type="line"/>
      <point x="205" y="710" type="line"/>
      <point x="200" y="686" type="line"/>
    </contour>
  </outline>
</glyph>
<glyph name="b" format="2">
  <advance width="690"/>
  <unicode hex="0062"/>
  <outline>
    <contour>
      <point x="45" y="0" type="line"/>
      <point x="191" y="0" type="line"/>
      <point x="264" y="105" type="line"/>
      <point x="293" y="109" type="line"/>
      <point x="293" y="735" type="line"/>
      <point x="14" y="735" type="line"/>
      <point x="14" y="655" type="line"/>
      <point x="21" y="653" type="line" smooth="yes"/>
      <point x="38" y="648"/>
      <point x="45" y="643"/>
      <point x="45" y="627" type="curve" smooth="yes"/>
    </contour>
    <contour>
      <point x="429" y="-10" type="curve" smooth="yes"/>
      <point x="566" y="-10"/>
      <point x="663" y="104"/>
      <point x="663" y="264" type="curve" smooth="yes"/>
      <point x="663" y="420"/>
      <point x="575" y="524"/>
      <point x="437" y="524" type="curve" smooth="yes"/>
      <point x="348" y="524"/>
      <point x="305" y="482"/>
      <point x="243" y="375" type="curve"/>
      <point x="243" y="228" type="line"/>
      <point x="298" y="336"/>
      <point x="317" y="382"/>
      <point x="357" y="382" type="curve" smooth="yes"/>
      <point x="394" y="382"/>
      <point x="410" y="340"/>
      <point x="410" y="264" type="curve" smooth="yes"/>
      <point x="410" y="186"/>
      <point x="393" y="132"/>
      <point x="349" y="132" type="curve" smooth="yes"/>
      <point x="298" y="132"/>
      <point x="285" y="192"/>
      <point x="243" y="274" type="curve"/>
      <point x="243" y="86" type="line"/>
      <point x="284" y="21"/>
      <point x="336" y="-10"/>
    </contour>
  </outline>
</glyph>
<glyph name="c" format="2">
  <advance width="587"/>
  <unicode hex="0063"/>
  <anchor x="299" y="551" name="top"/>
  <anchor x="309" y="0" name="bottom"/>
  <outline>
    <contour>
      <point x="328" y="-10" type="curve" smooth="yes"/>
      <point x="458" y="-10"/>
      <point x="524" y="52"/>
      <point x="567" y="142" type="curve"/>
      <point x="490" y="203" type="line"/>
      <point x="467" y="158"/>
      <point x="433" y="115"/>
      <point x="375" y="115" type="curve" smooth="yes"/>
      <point x="312" y="115"/>
      <point x="276" y="169"/>
      <point x="276" y="257" type="curve" smooth="yes"/>
      <point x="276" y="346"/>
      <point x="304" y="402"/>
      <point x="351" y="402" type="curve" smooth="yes"/>
      <point x="373" y="402"/>
      <point x="383" y="389"/>
      <point x="394" y="374" type="curve"/>
      <point x="420" y="380"/>
      <point x="418" y="460"/>
      <point x="376" y="462" type="curve"/>
      <point x="376" y="325" type="line"/>
      <point x="555" y="325" type="line"/>
      <point x="555" y="468" type="line"/>
      <point x="533" y="486"/>
      <point x="463" y="524"/>
      <point x="336" y="524" type="curve" smooth="yes"/>
      <point x="145" y="524"/>
      <point x="23" y="426"/>
      <point x="23" y="257" type="curve" smooth="yes"/>
      <point x="23" y="86"/>
      <point x="154" y="-10"/>
    </contour>
  </outline>
</glyph>
<glyph name="d" format="2">
  <advance width="684"/>
  <unicode hex="0064"/>
  <anchor x="607" y="710" name="right"/>
  <anchor x="299" y="0" name="bottom"/>
  <outline>
    <contour>
      <point x="641" y="735" type="line"/>
      <point x="355" y="735" type="line"/>
      <point x="355" y="628" type="line"/>
      <point x="362" y="626" type="line" smooth="yes"/>
      <point x="382" y="620"/>
      <point x="393" y="616"/>
      <point x="393" y="600" type="curve" smooth="yes"/>
      <point x="393" y="107" type="line"/>
      <point x="409" y="135" type="line"/>
      <point x="409" y="0" type="line"/>
      <point x="672" y="0" type="line"/>
      <point x="672" y="107" type="line"/>
      <point x="665" y="109" type="line"/>
      <point x="648" y="115"/>
      <point x="641" y="119"/>
      <point x="641" y="135" type="curve"/>
    </contour>
    <contour>
      <point x="249" y="-10" type="curve" smooth="yes"/>
      <point x="349" y="-10"/>
      <point x="396" y="43"/>
      <point x="443" y="145" type="curve"/>
      <point x="443" y="290" type="line"/>
      <point x="387" y="177"/>
      <point x="369" y="132"/>
      <point x="329" y="132" type="curve" smooth="yes"/>
      <point x="292" y="132"/>
      <point x="276" y="175"/>
      <point x="276" y="250" type="curve" smooth="yes"/>
      <point x="276" y="328"/>
      <point x="293" y="382"/>
      <point x="337" y="382" type="curve" smooth="yes"/>
      <point x="381" y="382"/>
      <point x="397" y="337"/>
      <point x="443" y="246" type="curve"/>
      <point x="443" y="391" type="line"/>
      <point x="410" y="478"/>
      <point x="352" y="524"/>
      <point x="257" y="524" type="curve" smooth="yes"/>
      <point x="120" y="524"/>
      <point x="23" y="410"/>
      <point x="23" y="250" type="curve" smooth="yes"/>
      <point x="23" y="94"/>
      <point x="111" y="-10"/>
    </contour>
  </outline>
</glyph>
<glyph name="k" format="2">
  <advance width="728"/>
  <unicode hex="006B"/>
  <anchor x="321" y="0" name="bottom"/>
  <outline>
    <contour>
      <point x="16" y="0" type="line"/>
      <point x="325" y="0" type="line"/>
      <point x="325" y="103" type="line"/>
      <point x="322" y="103" type="line" smooth="yes"/>
      <point x="312" y="103"/>
      <point x="295" y="105"/>
      <point x="295" y="111" type="curve" smooth="yes"/>
      <point x="295" y="735" type="line"/>
      <point x="16" y="735" type="line"/>
      <point x="16" y="628" type="line"/>
      <point x="23" y="626" type="line" smooth="yes"/>
      <point x="40" y="622"/>
      <point x="47" y="616"/>
      <point x="47" y="600" type="curve" smooth="yes"/>
      <point x="47" y="129" type="line" smooth="yes"/>
      <point x="47" y="109"/>
      <point x="32" y="103"/>
      <point x="17" y="103" type="curve"/>
      <point x="16" y="103" type="line"/>
    </contour>
    <contour>
      <point x="716" y="0" type="line"/>
      <point x="716" y="103" type="line"/>
      <point x="714" y="103" type="line"/>
      <point x="692" y="103"/>
      <point x="669" y="113"/>
      <point x="655" y="134" type="curve" smooth="yes"/>
      <point x="490" y="376" type="line"/>
      <point x="431" y="270" type="line"/>
      <point x="585" y="373" type="line" smooth="yes"/>
      <point x="609" y="391"/>
      <point x="637" y="411"/>
      <point x="671" y="411" type="curve"/>
      <point x="673" y="411" type="line"/>
      <point x="673" y="514" type="line"/>
      <point x="406" y="514" type="line"/>
      <point x="406" y="411" type="line"/>
      <point x="414" y="411" type="line" smooth="yes"/>
      <point x="437" y="411"/>
      <point x="481" y="408"/>
      <point x="481" y="393" type="curve"/>
      <point x="315" y="281" type="line"/>
      <point x="315" y="247" type="line"/>
      <point x="397" y="111" type="line"/>
      <point x="397" y="105"/>
      <point x="380" y="103"/>
      <point x="370" y="103" type="curve" smooth="yes"/>
      <point x="367" y="103" type="line"/>
      <point x="367" y="0" type="line"/>
    </contour>
  </outline>
</glyph>
<glyph name="l" format="2">
  <advance width="341"/>
  <unicode hex="006C"/>
  <anchor x="162" y="741" name="top"/>
  <anchor x="269" y="730" name="right"/>
  <anchor x="325" y="391" name="mid"/>
  <anchor x="165" y="0" name="bottom"/>
  <outline>
    <contour>
      <point x="297" y="129" type="line" smooth="yes"/>
      <point x="297" y="109"/>
      <point x="312" y="103"/>
      <point x="328" y="103" type="curve"/>
      <point x="329" y="103" type="line"/>
      <point x="329" y="0" type="line"/>
      <point x="16" y="0" type="line"/>
      <point x="16" y="103" type="line"/>
      <point x="17" y="103" type="line"/>
      <point x="33" y="103"/>
      <point x="48" y="109"/>
      <point x="48" y="129" type="curve" smooth="yes"/>
      <point x="48" y="600" type="line" smooth="yes"/>
      <point x="48" y="616"/>
      <point x="41" y="622"/>
      <point x="23" y="626" type="curve" smooth="yes"/>
      <point x="16" y="628" type="line"/>
      <point x="16" y="735" type="line"/>
      <point x="297" y="735" type="line"/>
    </contour>
  </outline>
</glyph>
<glyph name="m" format="2">
  <advance width="999"/>
  <unicode hex="006D"/>
  <anchor x="463" y="-10" name="bottom"/>
  <outline>
    <contour>
      <point x="16" y="0" type="line"/>
      <point x="316" y="0" type="line"/>
      <point x="316" y="103" type="line"/>
      <point x="313" y="103" type="line" smooth="yes"/>
      <point x="305" y="103"/>
      <point x="295" y="105"/>
      <point x="295" y="111" type="curve" smooth="yes"/>
      <point x="295" y="407" type="line"/>
      <point x="279" y="365" type="line"/>
      <point x="279" y="514" type="line"/>
      <point x="16" y="514" type="line"/>
      <point x="16" y="407" type="line"/>
      <point x="23" y="405" type="line" smooth="yes"/>
      <point x="43" y="399"/>
      <point x="50" y="395"/>
      <point x="50" y="379" type="curve" smooth="yes"/>
      <point x="50" y="129" type="line" smooth="yes"/>
      <point x="50" y="109"/>
      <point x="35" y="103"/>
      <point x="17" y="103" type="curve" smooth="yes"/>
      <point x="16" y="103" type="line"/>
    </contour>
    <contour>
      <point x="645" y="0" type="line"/>
      <point x="645" y="103" type="line"/>
      <point x="644" y="103" type="line"/>
      <point x="638" y="103"/>
      <point x="626" y="105"/>
      <point x="626" y="111" type="curve" smooth="yes"/>
      <point x="626" y="343" type="line" smooth="yes"/>
      <point x="626" y="460"/>
      <point x="560" y="524"/>
      <point x="457" y="524" type="curve" smooth="yes"/>
      <point x="371" y="524"/>
      <point x="305" y="476"/>
      <point x="271" y="394" type="curve"/>
      <point x="271" y="255" type="line"/>
      <point x="303" y="349"/>
      <point x="327" y="372"/>
      <point x="349" y="372" type="curve" smooth="yes"/>
      <point x="371" y="372"/>
      <point x="377" y="363"/>
      <point x="377" y="351" type="curve" smooth="yes"/>
      <point x="377" y="111" type="line" smooth="yes"/>
      <point x="377" y="105"/>
      <point x="368" y="103"/>
      <point x="359" y="103" type="curve" smooth="yes"/>
      <point x="358" y="103" type="line"/>
      <point x="358" y="0" type="line"/>
    </contour>
    <contour>
      <point x="987" y="0" type="line"/>
      <point x="987" y="103" type="line"/>
      <point x="985" y="103" type="line" smooth="yes"/>
      <point x="970" y="103"/>
      <point x="956" y="109"/>
      <point x="956" y="129" type="curve" smooth="yes"/>
      <point x="956" y="343" type="line" smooth="yes"/>
      <point x="956" y="460"/>
      <point x="890" y="524"/>
      <point x="787" y="524" type="curve" smooth="yes"/>
      <point x="701" y="524"/>
      <point x="636" y="477"/>
      <point x="600" y="395" type="curve"/>
      <point x="600" y="259" type="line"/>
      <point x="630" y="340"/>
      <point x="653" y="372"/>
      <point x="679" y="372" type="curve" smooth="yes"/>
      <point x="702" y="372"/>
      <point x="708" y="363"/>
      <point x="708" y="351" type="curve" smooth="yes"/>
      <point x="708" y="111" type="line" smooth="yes"/>
      <point x="708" y="105"/>
      <point x="698" y="103"/>
      <point x="688" y="103" type="curve" smooth="yes"/>
      <point x="687" y="103" type="line"/>
      <point x="687" y="0" type="line"/>
    </contour>
  </outline>
</glyph>
<glyph name="n" format="2">
  <advance width="688"/>
  <unicode hex="006E"/>
  <anchor x="320" y="551" name="top"/>
  <anchor x="328" y="0" name="bottom"/>
  <outline>
    <contour>
      <point x="16" y="0" type="line"/>
      <point x="16" y="103" type="line"/>
      <point x="17" y="103" type="line" smooth="yes"/>
      <point x="35" y="103"/>
      <point x="47" y="109"/>
      <point x="47" y="129" type="curve" smooth="yes"/>
      <point x="47" y="379" type="line" smooth="yes"/>
      <point x="47" y="395"/>
      <point x="40" y="402"/>
      <point x="23" y="405" type="curve" smooth="yes"/>
      <point x="16" y="407" type="line"/>
      <point x="16" y="514" type="line"/>
      <point x="279" y="514" type="line"/>
      <point x="279" y="387" type="line"/>
      <point x="295" y="407" type="line"/>
      <point x="295" y="111" type="line" smooth="yes"/>
      <point x="295" y="105"/>
      <point x="312" y="103"/>
      <point x="322" y="103" type="curve" smooth="yes"/>
      <point x="325" y="103" type="line"/>
      <point x="325" y="0" type="line"/>
    </contour>
    <contour>
      <point x="645" y="129" type="line" smooth="yes"/>
      <point x="645" y="109"/>
      <point x="656" y="103"/>
      <point x="674" y="103" type="curve" smooth="yes"/>
      <point x="676" y="103" type="line"/>
      <point x="676" y="0" type="line"/>
      <point x="367" y="0" type="line"/>
      <point x="367" y="103" type="line"/>
      <point x="368" y="103" type="line" smooth="yes"/>
      <point x="380" y="103"/>
      <point x="397" y="105"/>
      <point x="397" y="111" type="curve" smooth="yes"/>
      <point x="397" y="352" type="line" smooth="yes"/>
      <point x="397" y="356"/>
      <point x="386" y="372"/>
      <point x="362" y="372" type="curve" smooth="yes"/>
      <point x="325" y="372"/>
      <point x="299" y="332"/>
      <point x="271" y="249" type="curve"/>
      <point x="271" y="392" type="line"/>
      <point x="298" y="472"/>
      <point x="372" y="524"/>
      <point x="468" y="524" type="curve" smooth="yes"/>
      <point x="575" y="524"/>
      <point x="645" y="460"/>
      <point x="645" y="343" type="curve" smooth="yes"/>
    </contour>
  </outline>
</glyph>
<glyph name="o" format="2">
  <advance width="668"/>
  <unicode hex="006F"/>
  <anchor x="307" y="551" name="top"/>
  <anchor x="411" y="0" name="right"/>
  <anchor x="307" y="0" name="bottom"/>
  <outline>
    <contour>
      <point x="334" y="-10" type="curve"/>
      <point x="529" y="-10"/>
      <point x="645" y="98"/>
      <point x="645" y="257" type="curve" smooth="yes"/>
      <point x="645" y="416"/>
      <point x="529" y="524"/>
      <point x="334" y="524" type="curve" smooth="yes"/>
      <point x="139" y="524"/>
      <point x="23" y="416"/>
      <point x="23" y="257" type="curve" smooth="yes"/>
      <point x="23" y="98"/>
      <point x="139" y="-10"/>
    </contour>
    <contour>
      <point x="334" y="108" type="curve"/>
      <point x="292" y="108"/>
      <point x="276" y="145"/>
      <point x="276" y="257" type="curve" smooth="yes"/>
      <point x="276" y="369"/>
      <point x="292" y="402"/>
      <point x="334" y="402" type="curve" smooth="yes"/>
      <point x="376" y="402"/>
      <point x="392" y="369"/>
      <point x="392" y="257" type="curve" smooth="yes"/>
      <point x="392" y="145"/>
      <point x="376" y="108"/>
    </contour>
  </outline>
</glyph>
<glyph name="p" format="2">
  <advance width="692"/>
  <unicode hex="0070"/>
  <outline>
    <contour>
      <point x="16" y="-223" type="line"/>
      <point x="351" y="-223" type="line"/>
      <point x="351" y="-120" type="line"/>
      <point x="349" y="-120" type="line" smooth="yes"/>
      <point x="327" y="-120"/>
      <point x="295" y="-118"/>
      <point x="295" y="-112" type="curve" smooth="yes"/>
      <point x="295" y="377" type="line"/>
      <point x="279" y="359" type="line"/>
      <point x="279" y="514" type="line"/>
      <point x="16" y="514" type="line"/>
      <point x="16" y="407" type="line"/>
      <point x="23" y="405" type="line" smooth="yes"/>
      <point x="40" y="402"/>
      <point x="47" y="395"/>
      <point x="47" y="379" type="curve" smooth="yes"/>
      <point x="47" y="-94" type="line" smooth="yes"/>
      <point x="47" y="-114"/>
      <point x="32" y="-120"/>
      <point x="17" y="-120" type="curve"/>
      <point x="16" y="-120" type="line"/>
    </contour>
    <contour>
      <point x="431" y="-10" type="curve" smooth="yes"/>
      <point x="568" y="-10"/>
      <point x="665" y="104"/>
      <point x="665" y="264" type="curve" smooth="yes"/>
      <point x="665" y="420"/>
      <point x="577" y="524"/>
      <point x="439" y="524" type="curve" smooth="yes"/>
      <point x="359" y="524"/>
      <point x="314" y="486"/>
      <point x="271" y="413" type="curve"/>
      <point x="271" y="266" type="line"/>
      <point x="299" y="337"/>
      <point x="319" y="382"/>
      <point x="359" y="382" type="curve" smooth="yes"/>
      <point x="395" y="382"/>
      <point x="412" y="340"/>
      <point x="412" y="264" type="curve" smooth="yes"/>
      <point x="412" y="186"/>
      <point x="395" y="132"/>
      <point x="351" y="132" type="curve" smooth="yes"/>
      <point x="307" y="132"/>
      <point x="291" y="174"/>
      <point x="271" y="230" type="curve"/>
      <point x="271" y="51" type="line"/>
      <point x="309" y="9"/>
      <point x="359" y="-10"/>
    </contour>
  </outline>
</glyph>
<glyph name="q" format="2">
  <advance width="684"/>
  <unicode hex="0071"/>
  <outline>
    <contour>
      <point x="337" y="-223" type="line"/>
      <point x="672" y="-223" type="line"/>
      <point x="672" y="-120" type="line"/>
      <point x="671" y="-120" type="line"/>
      <point x="656" y="-120"/>
      <point x="641" y="-114"/>
      <point x="641" y="-94" type="curve" smooth="yes"/>
      <point x="641" y="514" type="line"/>
      <point x="498" y="514" type="line"/>
      <point x="416" y="399" type="line"/>
      <point x="393" y="405" type="line"/>
      <point x="393" y="-112" type="line" smooth="yes"/>
      <point x="393" y="-118"/>
      <point x="361" y="-120"/>
      <point x="339" y="-120" type="curve" smooth="yes"/>
      <point x="337" y="-120" type="line"/>
    </contour>
    <contour>
      <point x="249" y="-10" type="curve" smooth="yes"/>
      <point x="349" y="-10"/>
      <point x="396" y="44"/>
      <point x="443" y="146" type="curve"/>
      <point x="443" y="290" type="line"/>
      <point x="387" y="175"/>
      <point x="369" y="132"/>
      <point x="329" y="132" type="curve" smooth="yes"/>
      <point x="292" y="132"/>
      <point x="276" y="174"/>
      <point x="276" y="250" type="curve" smooth="yes"/>
      <point x="276" y="328"/>
      <point x="293" y="382"/>
      <point x="337" y="382" type="curve" smooth="yes"/>
      <point x="381" y="382"/>
      <point x="397" y="339"/>
      <point x="443" y="244" type="curve"/>
      <point x="443" y="390" type="line"/>
      <point x="410" y="478"/>
      <point x="352" y="524"/>
      <point x="257" y="524" type="curve" smooth="yes"/>
      <point x="120" y="524"/>
      <point x="23" y="410"/>
      <point x="23" y="250" type="curve" smooth="yes"/>
      <point x="23" y="94"/>
      <point x="111" y="-10"/>
    </contour>
  </outline>
</glyph>
<glyph name="v" format="2">
  <advance width="605"/>
  <unicode hex="0076"/>
  <outline>
    <contour>
      <point x="181" y="0" type="line"/>
      <point x="49" y="378" type="line" smooth="yes"/>
      <point x="40" y="404"/>
      <point x="30" y="412"/>
      <point x="9" y="412" type="curve" smooth="yes"/>
      <point x="8" y="412" type="line"/>
      <point x="8" y="514" type="line"/>
      <point x="345" y="514" type="line"/>
      <point x="345" y="412" type="line"/>
      <point x="343" y="412" type="line" smooth="yes"/>
      <point x="319" y="412"/>
      <point x="292" y="410"/>
      <point x="292" y="403" type="curve"/>
      <point x="398" y="86" type="line"/>
      <point x="398" y="86" type="line"/>
      <point x="367" y="128" type="line"/>
      <point x="459" y="391" type="line"/>
      <point x="459" y="403"/>
      <point x="434" y="412"/>
      <point x="415" y="412" type="curve" smooth="yes"/>
      <point x="413" y="412" type="line"/>
      <point x="413" y="514" type="line"/>
      <point x="597" y="514" type="line"/>
      <point x="597" y="412" type="line"/>
      <point x="596" y="412" type="line"/>
      <point x="581" y="412"/>
      <point x="567" y="402"/>
      <point x="556" y="370" type="curve" smooth="yes"/>
      <point x="427" y="0" type="line"/>
    </contour>
  </outline>
</glyph>
<glyph name="x" format="2">
  <advance width="601"/>
  <unicode hex="0078"/>
  <outline>
    <contour>
      <point x="240" y="0" type="line"/>
      <point x="593" y="0" type="line"/>
      <point x="593" y="102" type="line"/>
      <point x="592" y="102" type="line"/>
      <point x="568" y="102"/>
      <point x="561" y="114"/>
      <point x="545" y="136" type="curve" smooth="yes"/>
      <point x="423" y="281" type="line"/>
      <point x="419" y="285" type="line"/>
      <point x="318" y="404" type="line"/>
      <point x="318" y="410"/>
      <point x="340" y="412"/>
      <point x="356" y="412" type="curve" smooth="yes"/>
      <point x="359" y="412" type="line"/>
      <point x="359" y="514" type="line"/>
      <point x="8" y="514" type="line"/>
      <point x="8" y="411" type="line"/>
      <point x="8" y="411" type="line"/>
      <point x="30" y="411"/>
      <point x="36" y="404"/>
      <point x="50" y="385" type="curve" smooth="yes"/>
      <point x="174" y="239" type="line"/>
      <point x="177" y="236" type="line"/>
      <point x="283" y="111" type="line"/>
      <point x="283" y="104"/>
      <point x="259" y="102"/>
      <point x="242" y="102" type="curve" smooth="yes"/>
      <point x="240" y="102" type="line"/>
    </contour>
    <contour>
      <point x="413" y="247" type="line"/>
      <point x="532" y="367" type="line" smooth="yes"/>
      <point x="555" y="394"/>
      <point x="565" y="412"/>
      <point x="583" y="412" type="curve"/>
      <point x="583" y="412" type="line"/>
      <point x="583" y="514" type="line"/>
      <point x="411" y="514" type="line"/>
      <point x="411" y="412" type="line"/>
      <point x="414" y="412" type="line" smooth="yes"/>
      <point x="428" y="412"/>
      <point x="446" y="404"/>
      <point x="446" y="392" type="curve"/>
      <point x="337" y="284" type="line"/>
    </contour>
    <contour>
      <point x="11" y="0" type="line"/>
      <point x="189" y="0" type="line"/>
      <point x="189" y="102" type="line"/>
      <point x="188" y="102" type="line" smooth="yes"/>
      <point x="171" y="102"/>
      <point x="151" y="110"/>
      <point x="151" y="122" type="curve"/>
      <point x="266" y="238" type="line"/>
      <point x="189" y="272" type="line"/>
      <point x="57" y="140" type="line" smooth="yes"/>
      <point x="38" y="118"/>
      <point x="27" y="102"/>
      <point x="12" y="102" type="curve"/>
      <point x="11" y="102" type="line"/>
    </contour>
  </outline>
</glyph>
<glyph name="y" format="2">
  <advance width="612"/>
  <unicode hex="0079"/>
  <anchor x="300" y="551" name="top"/>
  <anchor x="309" y="-211" name="bottom"/>
  <outline>
    <contour>
      <point x="272" y="-104" type="line"/>
      <point x="319" y="18" type="line"/>
      <point x="398" y="157" type="line"/>
      <point x="290" y="402" type="line"/>
      <point x="290" y="409"/>
      <point x="314" y="411"/>
      <point x="340" y="411" type="curve" smooth="yes"/>
      <point x="341" y="411" type="line"/>
      <point x="341" y="514" type="line"/>
      <point x="8" y="514" type="line"/>
      <point x="8" y="411" type="line"/>
      <point x="9" y="411" type="line"/>
      <point x="31" y="411"/>
      <point x="37" y="403"/>
      <point x="49" y="376" type="curve" smooth="yes"/>
    </contour>
    <contour>
      <point x="137" y="-235" type="curve" smooth="yes"/>
      <point x="233" y="-235"/>
      <point x="305" y="-161"/>
      <point x="390" y="21" type="curve" smooth="yes"/>
      <point x="558" y="366" type="line" smooth="yes"/>
      <point x="572" y="398"/>
      <point x="584" y="411"/>
      <point x="603" y="411" type="curve"/>
      <point x="604" y="411" type="line"/>
      <point x="604" y="514" type="line"/>
      <point x="419" y="514" type="line"/>
      <point x="419" y="411" type="line"/>
      <point x="422" y="411" type="line" smooth="yes"/>
      <point x="447" y="411"/>
      <point x="466" y="402"/>
      <point x="466" y="389" type="curve"/>
      <point x="313" y="71" type="line"/>
      <point x="281" y="3" type="line" smooth="yes"/>
      <point x="260" y="-23"/>
      <point x="228" y="-46"/>
      <point x="167" y="-46" type="curve" smooth="yes"/>
      <point x="111" y="-46"/>
      <point x="57" y="-19"/>
      <point x="47" y="-17" type="curve"/>
      <point x="47" y="-211" type="line"/>
      <point x="62" y="-223"/>
      <point x="94" y="-235"/>
    </contour>
  </outline>
</glyph>
<glyph name="z" format="2">
  <advance width="549"/>
  <unicode hex="007A"/>
  <anchor x="245" y="551" name="top"/>
  <anchor x="264" y="0" name="bottom"/>
  <outline>
    <contour>
      <point x="241" y="114" type="line"/>
      <point x="258" y="65" type="line"/>
      <point x="515" y="388" type="line"/>
      <point x="515" y="514" type="line"/>
      <point x="26" y="514" type="line"/>
      <point x="26" y="313" type="line"/>
      <point x="111" y="313" type="line"/>
      <point x="117" y="345" type="line" smooth="yes"/>
      <point x="123" y="390"/>
      <point x="145" y="401"/>
      <point x="206" y="401" type="curve" smooth="yes"/>
      <point x="369" y="401" type="line"/>
      <point x="287" y="452" type="line"/>
      <point x="24" y="129" type="line"/>
      <point x="24" y="0" type="line"/>
      <point x="534" y="0" type="line"/>
      <point x="534" y="219" type="line"/>
      <point x="448" y="219" type="line"/>
      <point x="439" y="172" type="line" smooth="yes"/>
      <point x="434" y="127"/>
      <point x="411" y="114"/>
      <point x="351" y="114" type="curve" smooth="yes"/>
    </contour>
  </outline>
</glyph>
<glyph name="periodcentered" format="2">
  <advance width="352"/>
  <unicode hex="00B7"/>
  <outline>
    <contour>
      <point x="307" y="373" type="curve" smooth="yes"/>
      <point x="307" y="449"/>
      <point x="259" y="502"/>
      <point x="176" y="502" type="curve" smooth="yes"/>
      <point x="93" y="502"/>
      <point x="45" y="449"/>
      <point x="45" y="373" type="curve" smooth="yes"/>
      <point x="45" y="296"/>
      <point x="93" y="243"/>
      <point x="176" y="243" type="curve" smooth="yes"/>
      <point x="259" y="243"/>
      <point x="307" y="296"/>
    </contour>
  </outline>
</glyph>
<glyph name="Eth" format="2">
  <advance width="823"/>
  <unicode hex="00D0"/>
  <outline>
    <contour>
      <point x="22" y="405" type="line"/>
      <point x="301" y="336" type="line"/>
      <point x="431" y="305" type="line"/>
      <point x="152" y="374" type="line"/>
    </contour>
    <contour>
      <point x="22" y="0" type="line"/>
      <point x="22" y="109" type="line"/>
      <point x="33" y="109" type="line" smooth="yes"/>
      <point x="54" y="109"/>
      <point x="72" y="116"/>
      <point x="72" y="145" type="curve" smooth="yes"/>
      <point x="72" y="565" type="line" smooth="yes"/>
      <point x="72" y="592"/>
      <point x="54" y="601"/>
      <point x="33" y="601" type="curve" smooth="yes"/>
      <point x="22" y="601" type="line"/>
      <point x="22" y="710" type="line"/>
      <point x="392" y="710" type="line" smooth="yes"/>
      <point x="628" y="710"/>
      <point x="795" y="584"/>
      <point x="795" y="357" type="curve" smooth="yes"/>
      <point x="795" y="131"/>
      <point x="628" y="0"/>
      <point x="392" y="0" type="curve" smooth="yes"/>
    </contour>
    <contour>
      <point x="380" y="120" type="line" smooth="yes"/>
      <point x="461" y="120"/>
      <point x="522" y="216"/>
      <point x="522" y="357" type="curve" smooth="yes"/>
      <point x="522" y="498"/>
      <point x="461" y="590"/>
      <point x="380" y="590" type="curve" smooth="yes"/>
      <point x="335" y="590" type="line"/>
      <point x="335" y="120" type="line"/>
    </contour>
  </outline>
</glyph>
<glyph name="tbar" format="2">
  <advance width="428"/>
  <unicode hex="0167"/>
  <outline>
    <contour>
      <point x="413" y="333" type="line"/>
      <point x="0" y="333" type="line"/>
      <point x="0" y="238" type="line"/>
      <point x="413" y="238" type="line"/>
    </contour>
    <component base="t"/>
  </outline>
</glyph>
<glyph name="quoteleft" format="2">
  <advance width="264"/>
  <unicode hex="2018"/>
  <outline>
    <contour>
      <point x="152" y="718" type="line"/>
      <point x="64" y="634"/>
      <point x="17" y="539"/>
      <point x="17" y="444" type="curve" smooth="yes"/>
      <point x="17" y="357"/>
      <point x="64" y="315"/>
      <point x="132" y="315" type="curve" smooth="yes"/>
      <point x="199" y="315"/>
      <point x="240" y="364"/>
      <point x="240" y="423" type="curve" smooth="yes"/>
      <point x="240" y="483"/>
      <point x="196" y="527"/>
      <point x="134" y="527" type="curve" smooth="yes"/>
      <point x="114" y="527"/>
      <point x="102" y="525"/>
      <point x="93" y="515" type="curve"/>
      <point x="102" y="509"/>
      <point x="121" y="483"/>
      <point x="120" y="487" type="curve"/>
      <point x="126" y="549"/>
      <point x="191" y="602"/>
      <point x="272" y="655" type="curve"/>
    </contour>
  </outline>
</glyph>
<glyph name="quotedblright" format="2">
  <advance width="508"/>
  <unicode hex="201D"/>
  <outline>
    <contour>
      <point x="111" y="325" type="line"/>
      <point x="199" y="409"/>
      <point x="246" y="504"/>
      <point x="246" y="599" type="curve" smooth="yes"/>
      <point x="246" y="686"/>
      <point x="199" y="728"/>
      <point x="131" y="728" type="curve" smooth="yes"/>
      <point x="64" y="728"/>
      <point x="23" y="679"/>
      <point x="23" y="620" type="curve" smooth="yes"/>
      <point x="23" y="560"/>
      <point x="67" y="516"/>
      <point x="129" y="516" type="curve" smooth="yes"/>
      <point x="149" y="516"/>
      <point x="161" y="518"/>
      <point x="170" y="528" type="curve"/>
      <point x="161" y="534"/>
      <point x="142" y="560"/>
      <point x="143" y="556" type="curve"/>
      <point x="137" y="494"/>
      <point x="72" y="441"/>
      <point x="-9" y="388" type="curve"/>
    </contour>
    <contour>
      <point x="357" y="325" type="line"/>
      <point x="445" y="409"/>
      <point x="492" y="504"/>
      <point x="492" y="599" type="curve" smooth="yes"/>
      <point x="492" y="686"/>
      <point x="445" y="728"/>
      <point x="377" y="728" type="curve" smooth="yes"/>
      <point x="310" y="728"/>
      <point x="269" y="679"/>
      <point x="269" y="620" type="curve" smooth="yes"/>
      <point x="269" y="560"/>
      <point x="313" y="516"/>
      <point x="375" y="516" type="curve" smooth="yes"/>
      <point x="395" y="516"/>
      <point x="407" y="518"/>
      <point x="416" y="528" type="curve"/>
      <point x="407" y="534"/>
      <point x="388" y="560"/>
      <point x="389" y="556" type="curve"/>
      <point x="383" y="494"/>
      <point x="318" y="441"/>
      <point x="237" y="388" type="curve"/>
    </contour>
  </outline>
</glyph>
<glyph name="fraction" format="2">
  <advance width="424"/>
  <unicode hex="2044"/>
  <outline>
    <contour>
      <point x="434" y="710" type="line"/>
      <point x="-140" y="0" type="line"/>
      <point x="-10" y="0" type="line"/>
      <point x="564" y="710" type="line"/>
    </contour>
  </outline>
</glyph>
<glyph name="servicemark" format="2">
  <advance width="933"/>
  <unicode hex="2120"/>
  <outline>
    <contour>
      <point x="405" y="369" type="line"/>
      <point x="512" y="369" type="line"/>
      <point x="512" y="417" type="line"/>
      <point x="509" y="417" type="line" smooth="yes"/>
      <point x="499" y="417"/>
      <point x="488" y="418"/>
      <point x="488" y="421" type="curve" smooth="yes"/>
      <point x="488" y="701" type="line"/>
      <point x="477" y="700" type="line"/>
      <point x="565" y="368" type="line"/>
      <point x="655" y="368" type="line"/>
      <point x="747" y="699" type="line"/>
      <point x="736" y="700" type="line"/>
      <point x="736" y="421" type="line" smooth="yes"/>
      <point x="736" y="418"/>
      <point x="726" y="417"/>
      <point x="716" y="417" type="curve" smooth="yes"/>
      <point x="712" y="417" type="line"/>
      <point x="712" y="369" type="line"/>
      <point x="893" y="369" type="line"/>
      <point x="893" y="417" type="line"/>
      <point x="889" y="417" type="line" smooth="yes"/>
      <point x="877" y="417"/>
      <point x="869" y="420"/>
      <point x="869" y="433" type="curve" smooth="yes"/>
      <point x="869" y="646" type="line" smooth="yes"/>
      <point x="869" y="660"/>
      <point x="877" y="663"/>
      <point x="889" y="663" type="curve" smooth="yes"/>
      <point x="893" y="663" type="line"/>
      <point x="893" y="710" type="line"/>
      <point x="687" y="710" type="line"/>
      <point x="606" y="412" type="line"/>
      <point x="659" y="484" type="line"/>
      <point x="612" y="710" type="line"/>
      <point x="405" y="710" type="line"/>
      <point x="405" y="663" type="line"/>
      <point x="410" y="663" type="line" smooth="yes"/>
      <point x="421" y="663"/>
      <point x="429" y="660"/>
      <point x="429" y="646" type="curve" smooth="yes"/>
      <point x="429" y="433" type="line" smooth="yes"/>
      <point x="429" y="420"/>
      <point x="421" y="417"/>
      <point x="410" y="417" type="curve"/>
      <point x="405" y="417" type="line"/>
    </contour>
    <contour>
      <point x="211" y="415" type="curve" smooth="yes"/>
      <point x="156" y="415"/>
      <point x="124" y="445"/>
      <point x="109" y="488" type="curve"/>
      <point x="50" y="488" type="line"/>
      <point x="50" y="366" type="line"/>
      <point x="98" y="366" type="line"/>
      <point x="106" y="451" type="line"/>
      <point x="99" y="460"/>
      <point x="85" y="463"/>
      <point x="71" y="480" type="curve"/>
      <point x="80" y="402"/>
      <point x="125" y="363"/>
      <point x="223" y="363" type="curve" smooth="yes"/>
      <point x="308" y="363"/>
      <point x="367" y="402"/>
      <point x="367" y="484" type="curve" smooth="yes"/>
      <point x="367" y="558"/>
      <point x="319" y="587"/>
      <point x="233" y="606" type="curve" smooth="yes"/>
      <point x="198" y="614"/>
      <point x="171" y="619"/>
      <point x="171" y="640" type="curve" smooth="yes"/>
      <point x="171" y="656"/>
      <point x="184" y="664"/>
      <point x="208" y="664" type="curve" smooth="yes"/>
      <point x="252" y="664"/>
      <point x="275" y="640"/>
      <point x="289" y="615" type="curve"/>
      <point x="344" y="615" type="line"/>
      <point x="344" y="714" type="line"/>
      <point x="298" y="714" type="line"/>
      <point x="287" y="643" type="line"/>
      <point x="298" y="632"/>
      <point x="319" y="636"/>
      <point x="324" y="632" type="curve"/>
      <point x="306" y="691"/>
      <point x="259" y="716"/>
      <point x="196" y="716" type="curve" smooth="yes"/>
      <point x="112" y="716"/>
      <point x="60" y="679"/>
      <point x="60" y="608" type="curve" smooth="yes"/>
      <point x="60" y="527"/>
      <point x="125" y="503"/>
      <point x="182" y="487" type="curve" smooth="yes"/>
      <point x="239" y="472"/>
      <point x="254" y="466"/>
      <point x="254" y="444" type="curve" smooth="yes"/>
      <point x="254" y="425"/>
      <point x="238" y="415"/>
    </contour>
  </outline>
</glyph>
<glyph name="notequal" format="2">
  <advance width="560"/>
  <unicode hex="2260"/>
  <outline>
    <contour>
      <point x="366" y="651" type="line"/>
      <point x="43" y="33" type="line"/>
      <point x="174" y="33" type="line"/>
      <point x="497" y="651" type="line"/>
    </contour>
    <contour>
      <point x="495" y="529" type="line"/>
      <point x="45" y="529" type="line"/>
      <point x="45" y="375" type="line"/>
      <point x="495" y="375" type="line"/>
    </contour>
    <contour>
      <point x="495" y="309" type="line"/>
      <point x="45" y="309" type="line"/>
      <point x="45" y="155" type="line"/>
      <point x="495" y="155" type="line"/>
    </contour>
  </outline>
</glyph>
<glyph name="lessequal" format="2">
  <advance width="560"/>
  <unicode hex="2264"/>
  <outline>
    <contour>
      <point x="505" y="147" type="line"/>
      <point x="55" y="147" type="line"/>
      <point x="55" y="-7" type="line"/>
      <point x="505" y="-7" type="line"/>
    </contour>
    <contour>
      <point x="474" y="677" type="line"/>
      <point x="86" y="499" type="line"/>
      <point x="86" y="406" type="line"/>
      <point x="107" y="354" type="line"/>
      <point x="474" y="517" type="line"/>
    </contour>
    <contour>
      <point x="474" y="337" type="line"/>
      <point x="108" y="499" type="line"/>
      <point x="86" y="424" type="line"/>
      <point x="86" y="345" type="line"/>
      <point x="474" y="167" type="line"/>
    </contour>
  </outline>
</glyph>
<glyph name="f_f_i" format="2">
  <advance width="1070"/>
  <unicode hex="FB03"/>
  <outline>
    <contour>
      <point x="0" y="514" type="line"/>
      <point x="0" y="402" type="line"/>
      <point x="414" y="402" type="line"/>
      <point x="414" y="514" type="line"/>
    </contour>
    <contour>
      <point x="354" y="514" type="line"/>
      <point x="354" y="402" type="line"/>
      <point x="777" y="402" type="line"/>
      <point x="777" y="514" type="line"/>
    </contour>
    <contour>
      <point x="900" y="543" type="curve" smooth="yes"/>
      <point x="982" y="543"/>
      <point x="1027" y="589"/>
      <point x="1027" y="653" type="curve" smooth="yes"/>
      <point x="1027" y="717"/>
      <point x="982" y="763"/>
      <point x="900" y="763" type="curve" smooth="yes"/>
      <point x="819" y="763"/>
      <point x="773" y="717"/>
      <point x="773" y="653" type="curve" smooth="yes"/>
      <point x="773" y="588"/>
      <point x="819" y="543"/>
    </contour>
    <contour>
      <point x="745" y="0" type="line"/>
      <point x="1058" y="0" type="line"/>
      <point x="1058" y="103" type="line"/>
      <point x="1057" y="103" type="line"/>
      <point x="1041" y="103"/>
      <point x="1026" y="109"/>
      <point x="1026" y="129" type="curve" smooth="yes"/>
      <point x="1026" y="514" type="line"/>
      <point x="745" y="514" type="line"/>
      <point x="743" y="402" type="line"/>
      <point x="750" y="402" type="line" smooth="yes"/>
      <point x="771" y="402"/>
      <point x="777" y="392"/>
      <point x="777" y="376" type="curve"/>
      <point x="777" y="111" type="line"/>
      <point x="777" y="105"/>
      <point x="760" y="103"/>
      <point x="750" y="103" type="curve" smooth="yes"/>
      <point x="745" y="103" type="line"/>
    </contour>
    <contour>
      <point x="317" y="111" type="curve"/>
      <point x="317" y="579" type="line" smooth="yes"/>
      <point x="317" y="601"/>
      <point x="334" y="616"/>
      <point x="361" y="616" type="curve" smooth="yes"/>
      <point x="376" y="616"/>
      <point x="394" y="610"/>
      <point x="396" y="609" type="curve"/>
      <point x="396" y="724" type="line"/>
      <point x="383" y="730"/>
      <point x="347" y="737"/>
      <point x="304" y="737" type="curve" smooth="yes"/>
      <point x="176" y="737"/>
      <point x="69" y="683"/>
      <point x="69" y="528" type="curve" smooth="yes"/>
      <point x="69" y="133" type="line"/>
      <point x="69" y="113"/>
      <point x="54" y="103"/>
      <point x="28" y="103" type="curve" smooth="yes"/>
      <point x="16" y="103" type="line"/>
      <point x="16" y="0" type="line"/>
      <point x="352" y="0" type="line"/>
      <point x="352" y="103" type="line"/>
      <point x="349" y="103" type="line" smooth="yes"/>
      <point x="329" y="103"/>
      <point x="317" y="105"/>
    </contour>
    <contour>
      <point x="423" y="111" type="line"/>
      <point x="423" y="105"/>
      <point x="412" y="103"/>
      <point x="395" y="103" type="curve" smooth="yes"/>
      <point x="394" y="103" type="line"/>
      <point x="394" y="0" type="line"/>
      <point x="703" y="0" type="line"/>
      <point x="703" y="103" type="line"/>
      <point x="700" y="103" type="line" smooth="yes"/>
      <point x="686" y="103"/>
      <point x="671" y="105"/>
      <point x="671" y="111" type="curve"/>
      <point x="671" y="589" type="line" smooth="yes"/>
      <point x="671" y="611"/>
      <point x="686" y="626"/>
      <point x="713" y="626" type="curve" smooth="yes"/>
      <point x="726" y="626"/>
      <point x="744" y="620"/>
      <point x="746" y="619" type="curve"/>
      <point x="746" y="734" type="line"/>
      <point x="733" y="740"/>
      <point x="699" y="747"/>
      <point x="656" y="747" type="curve" smooth="yes"/>
      <point x="528" y="747"/>
      <point x="423" y="693"/>
      <point x="423" y="538" type="curve"/>
    </contour>
  </outline>
</glyph>
<glyph name="Ihookabove" format="2">
  <advance width="410"/>
  <outline>
    <contour>
      <point x="337" y="565" type="line" smooth="yes"/>
      <point x="337" y="594"/>
      <point x="355" y="601"/>
      <point x="378" y="601" type="curve" smooth="yes"/>
      <point x="388" y="601" type="line"/>
      <point x="388" y="710" type="line"/>
      <point x="22" y="710" type="line"/>
      <point x="22" y="601" type="line"/>
      <point x="32" y="601" type="line" smooth="yes"/>
      <point x="55" y="601"/>
      <point x="73" y="594"/>
      <point x="73" y="565" type="curve" smooth="yes"/>
      <point x="73" y="145" type="line" smooth="yes"/>
      <point x="73" y="116"/>
      <point x="55" y="109"/>
      <point x="32" y="109" type="curve" smooth="yes"/>
      <point x="22" y="109" type="line"/>
      <point x="22" y="0" type="line"/>
      <point x="388" y="0" type="line"/>
      <point x="388" y="109" type="line"/>
      <point x="378" y="109" type="line" smooth="yes"/>
      <point x="355" y="109"/>
      <point x="337" y="116"/>
      <point x="337" y="145" type="curve" smooth="yes"/>
    </contour>
    <contour>
      <point x="63" y="853" type="line"/>
      <point x="68" y="907"/>
      <point x="112" y="960"/>
      <point x="219" y="960" type="curve" smooth="yes"/>
      <point x="313" y="960"/>
      <point x="366" y="929"/>
      <point x="366" y="871" type="curve" smooth="yes"/>
      <point x="366" y="802"/>
      <point x="305" y="784"/>
      <point x="204" y="781" type="curve"/>
      <point x="255" y="807" type="line"/>
      <point x="255" y="743" type="line"/>
      <point x="151" y="743" type="line"/>
      <point x="151" y="815" type="line"/>
      <point x="219" y="818"/>
      <point x="239" y="829"/>
      <point x="239" y="857" type="curve" smooth="yes"/>
      <point x="239" y="877"/>
      <point x="228" y="888"/>
      <point x="206" y="888" type="curve" smooth="yes"/>
      <point x="182" y="888"/>
      <point x="170" y="874"/>
      <point x="167" y="853" type="curve"/>
    </contour>
  </outline>
</glyph>
<glyph name="SS" format="2">
  <advance width="1263"/>
  <outline>
    <contour>
      <point x="344" y="-10" type="curve"/>
      <point x="527" y="-10"/>
      <point x="622" y="95"/>
      <point x="622" y="246" type="curve" smooth="yes"/>
      <point x="622" y="404"/>
      <point x="520" y="456"/>
      <point x="401" y="488" type="curve" smooth="yes"/>
      <point x="311" y="512"/>
      <point x="248" y="523"/>
      <point x="248" y="558" type="curve" smooth="yes"/>
      <point x="248" y="580"/>
      <point x="274" y="596"/>
      <point x="323" y="596" type="curve" smooth="yes"/>
      <point x="389" y="596"/>
      <point x="439" y="561"/>
      <point x="460" y="520" type="curve"/>
      <point x="567" y="520" type="line"/>
      <point x="567" y="710" type="line"/>
      <point x="476" y="710" type="line"/>
      <point x="451" y="566" type="line"/>
      <point x="473" y="558"/>
      <point x="497" y="568"/>
      <point x="516" y="552" type="curve"/>
      <point x="479" y="676"/>
      <point x="414" y="720"/>
      <point x="292" y="720" type="curve" smooth="yes"/>
      <point x="154" y="720"/>
      <point x="34" y="639"/>
      <point x="34" y="492" type="curve" smooth="yes"/>
      <point x="34" y="333"/>
      <point x="132" y="276"/>
      <point x="233" y="245" type="curve" smooth="yes"/>
      <point x="344" y="211"/>
      <point x="405" y="197"/>
      <point x="405" y="163" type="curve" smooth="yes"/>
      <point x="405" y="132"/>
      <point x="377" y="115"/>
      <point x="322" y="115" type="curve"/>
      <point x="248" y="115"/>
      <point x="172" y="161"/>
      <point x="137" y="225" type="curve"/>
      <point x="20" y="225" type="line"/>
      <point x="20" y="0" type="line"/>
      <point x="114" y="0" type="line"/>
      <point x="139" y="169" type="line"/>
      <point x="137" y="173"/>
      <point x="101" y="154"/>
      <point x="74" y="182" type="curve"/>
      <point x="124" y="36"/>
      <point x="226" y="-10"/>
    </contour>
    <contour>
      <point x="975" y="-10" type="curve"/>
      <point x="1158" y="-10"/>
      <point x="1253" y="95"/>
      <point x="1253" y="246" type="curve" smooth="yes"/>
      <point x="1253" y="404"/>
      <point x="1151" y="456"/>
      <point x="1032" y="488" type="curve" smooth="yes"/>
      <point x="942" y="512"/>
      <point x="879" y="523"/>
      <point x="879" y="558" type="curve" smooth="yes"/>
      <point x="879" y="580"/>
      <point x="905" y="596"/>
      <point x="954" y="596" type="curve" smooth="yes"/>
      <point x="1020" y="596"/>
      <point x="1070" y="561"/>
      <point x="1091" y="520" type="curve"/>
      <point x="1198" y="520" type="line"/>
      <point x="1198" y="710" type="line"/>
      <point x="1107" y="710" type="line"/>
      <point x="1082" y="566" type="line"/>
      <point x="1104" y="558"/>
      <point x="1128" y="568"/>
      <point x="1147" y="552" type="curve"/>
      <point x="1110" y="676"/>
      <point x="1045" y="720"/>
      <point x="923" y="720" type="curve" smooth="yes"/>
      <point x="785" y="720"/>
      <point x="665" y="639"/>
      <point x="665" y="492" type="curve" smooth="yes"/>
      <point x="665" y="333"/>
      <point x="763" y="276"/>
      <point x="864" y="245" type="curve" smooth="yes"/>
      <point x="975" y="211"/>
      <point x="1036" y="197"/>
      <point x="1036" y="163" type="curve" smooth="yes"/>
      <point x="1036" y="132"/>
      <point x="1008" y="115"/>
      <point x="953" y="115" type="curve"/>
      <point x="879" y="115"/>
      <point x="803" y="161"/>
      <point x="768" y="225" type="curve"/>
      <point x="651" y="225" type="line"/>
      <point x="651" y="0" type="line"/>
      <point x="745" y="0" type="line"/>
      <point x="770" y="169" type="line"/>
      <point x="768" y="173"/>
      <point x="732" y="154"/>
      <point x="705" y="182" type="curve"/>
      <point x="755" y="36"/>
      <point x="857" y="-10"/>
    </contour>
  </outline>
</glyph>
<glyph name="acute_dotaccent" format="2">
  <advance width="531"/>
  <anchor x="226" y="539" name="_top"/>
  <outline>
    <contour>
      <point x="205" y="678" type="curve" smooth="yes"/>
      <point x="181" y="585" type="line"/>
      <point x="181" y="553" type="line"/>
      <point x="252" y="553" type="line"/>
      <point x="324" y="595" type="line" smooth="yes"/>
      <point x="379" y="627"/>
      <point x="404" y="664"/>
      <point x="404" y="709" type="curve" smooth="yes"/>
      <point x="404" y="751"/>
      <point x="370" y="784"/>
      <point x="317" y="784" type="curve" smooth="yes"/>
      <point x="255" y="784"/>
      <point x="222" y="744"/>
    </contour>
    <contour>
      <point x="251" y="807" type="curve" smooth="yes"/>
      <point x="330" y="807"/>
      <point x="375" y="843"/>
      <point x="375" y="904" type="curve" smooth="yes"/>
      <point x="375" y="965"/>
      <point x="330" y="1001"/>
      <point x="251" y="1001" type="curve" smooth="yes"/>
      <point x="173" y="1001"/>
      <point x="127" y="965"/>
      <point x="127" y="904" type="curve" smooth="yes"/>
      <point x="127" y="842"/>
      <point x="173" y="807"/>
    </contour>
  </outline>
</glyph>
<glyph name="dotaccent_macron" format="2">
  <advance width="500"/>
  <anchor x="250" y="526" name="_top"/>
  <outline>
    <contour>
      <point x="248" y="556" type="curve" smooth="yes"/>
      <point x="327" y="556"/>
      <point x="372" y="592"/>
      <point x="372" y="653" type="curve" smooth="yes"/>
      <point x="372" y="714"/>
      <point x="327" y="750"/>
      <point x="248" y="750" type="curve" smooth="yes"/>
      <point x="170" y="750"/>
      <point x="124" y="714"/>
      <point x="124" y="653" type="curve" smooth="yes"/>
      <point x="124" y="591"/>
      <point x="170" y="556"/>
    </contour>
    <contour>
      <point x="65" y="916" type="line"/>
      <point x="65" y="791" type="line"/>
      <point x="435" y="791" type="line"/>
      <point x="435" y="916" type="line"/>
    </contour>
  </outline>
</glyph>
<glyph name="f_l" format="2">
  <advance width="716"/>
  <outline>
    <contour>
      <point x="0" y="514" type="line"/>
      <point x="0" y="402" type="line"/>
      <point x="385" y="402" type="line"/>
      <point x="385" y="514" type="line"/>
    </contour>
    <contour>
      <point x="423" y="111" type="line" smooth="yes"/>
      <point x="423" y="105"/>
      <point x="408" y="103"/>
      <point x="398" y="103" type="curve" smooth="yes"/>
      <point x="394" y="103" type="line"/>
      <point x="394" y="0" type="line"/>
      <point x="704" y="0" type="line"/>
      <point x="704" y="103" type="line"/>
      <point x="703" y="103" type="line"/>
      <point x="687" y="103"/>
      <point x="672" y="109"/>
      <point x="672" y="129" type="curve" smooth="yes"/>
      <point x="672" y="730" type="line"/>
      <point x="389" y="730" type="line"/>
      <point x="423" y="697" type="line"/>
    </contour>
    <contour>
      <point x="352" y="0" type="line"/>
      <point x="352" y="103" type="line"/>
      <point x="349" y="103" type="line" smooth="yes"/>
      <point x="328" y="103"/>
      <point x="316" y="105"/>
      <point x="316" y="111" type="curve" smooth="yes"/>
      <point x="316" y="575" type="line" smooth="yes"/>
      <point x="316" y="603"/>
      <point x="336" y="626"/>
      <point x="379" y="626" type="curve" smooth="yes"/>
      <point x="423" y="626"/>
      <point x="452" y="599"/>
      <point x="471" y="537" type="curve"/>
      <point x="576" y="694" type="line"/>
      <point x="526" y="721"/>
      <point x="459" y="747"/>
      <point x="353" y="747" type="curve" smooth="yes"/>
      <point x="202" y="747"/>
      <point x="69" y="693"/>
      <point x="69" y="538" type="curve" smooth="yes"/>
      <point x="69" y="133" type="line" smooth="yes"/>
      <point x="69" y="113"/>
      <point x="54" y="103"/>
      <point x="28" y="103" type="curve" smooth="yes"/>
      <point x="16" y="103" type="line"/>
      <point x="16" y="0" type="line"/>
    </contour>
  </outline>
</glyph>
<glyph name="guillemotleft" format="2">
  <advance width="587"/>
  <outline>
    <contour>
      <point x="206" y="218" type="line"/>
      <point x="312" y="465" type="line"/>
      <point x="204" y="465" type="line"/>
      <point x="30" y="290" type="line"/>
      <point x="30" y="240" type="line"/>
      <point x="204" y="65" type="line"/>
      <point x="312" y="65" type="line"/>
      <point x="207" y="308" type="line"/>
    </contour>
    <contour>
      <point x="451" y="218" type="line"/>
      <point x="557" y="465" type="line"/>
      <point x="449" y="465" type="line"/>
      <point x="275" y="290" type="line"/>
      <point x="275" y="240" type="line"/>
      <point x="449" y="65" type="line"/>
      <point x="557" y="65" type="line"/>
      <point x="452" y="308" type="line"/>
    </contour>
  </outline>
</glyph>
<glyph name="macronbelow" format="2">
  <advance width="500"/>
  <anchor x="250" y="-70" name="_bottom"/>
  <outline>
    <contour>
      <point x="65" y="-74" type="line"/>
      <point x="65" y="-199" type="line"/>
      <point x="435" y="-199" type="line"/>
      <point x="435" y="-74" type="line"/>
    </contour>
  </outline>
</glyph>
<glyph name="tilde_acute.uc" format="2">
  <advance width="523"/>
  <anchor x="287" y="694" name="_top"/>
  <outline>
    <contour>
      <point x="324" y="750" type="curve" smooth="yes"/>
      <point x="396" y="750"/>
      <point x="440" y="811"/>
      <point x="460" y="904" type="curve"/>
      <point x="369" y="936" type="line"/>
      <point x="360" y="905"/>
      <point x="349" y="890"/>
      <point x="327" y="890" type="curve" smooth="yes"/>
      <point x="291" y="890"/>
      <point x="269" y="932"/>
      <point x="196" y="932" type="curve" smooth="yes"/>
      <point x="119" y="932"/>
      <point x="81" y="873"/>
      <point x="63" y="778" type="curve"/>
      <point x="154" y="748" type="line"/>
      <point x="161" y="779"/>
      <point x="172" y="793"/>
      <point x="193" y="793" type="curve" smooth="yes"/>
      <point x="223" y="793"/>
      <point x="246" y="750"/>
    </contour>
    <contour>
      <point x="236" y="1075" type="curve" smooth="yes"/>
      <point x="194" y="995" type="line"/>
      <point x="194" y="963" type="line"/>
      <point x="263" y="963" type="line"/>
      <point x="332" y="985" type="line" smooth="yes"/>
      <point x="405" y="1008"/>
      <point x="435" y="1038"/>
      <point x="435" y="1086" type="curve"/>
      <point x="435" y="1129"/>
      <point x="401" y="1160"/>
      <point x="352" y="1160" type="curve" smooth="yes"/>
      <point x="298" y="1160"/>
      <point x="266" y="1131"/>
    </contour>
  </outline>
</glyph>
